<svg width="184" height="39" viewBox="0 0 184 39" version="1.1" xmlns="http://www.w3.org/2000/svg" xmlns:xlink="http://www.w3.org/1999/xlink">
<title>logo</title>
<desc>Created using Figma</desc>
<g id="Canvas" transform="translate(600 487)">
<g id="logo">
<g id="Vector">
<use xlink:href="#path0_fill" transform="translate(-565.189 -474.1)" fill="#202121"/>
</g>
<g id="Vector">
<use xlink:href="#path1_fill" transform="translate(-547.789 -473.8)" fill="#202121"/>
</g>
<g id="Vector">
<use xlink:href="#path2_fill" transform="translate(-529.189 -474.1)" fill="#202121"/>
</g>
<g id="Vector">
<use xlink:href="#path3_fill" transform="translate(-510.189 -474.1)" fill="#202121"/>
</g>
<g id="Vector">
<use xlink:href="#path4_fill" transform="translate(-490.189 -474.1)" fill="#202121"/>
</g>
<g id="Vector">
<use xlink:href="#path5_fill" transform="translate(-471.089 -474.1)" fill="#202121"/>
</g>
<g id="Vector">
<use xlink:href="#path6_fill" transform="translate(-456.289 -474.1)" fill="#202121"/>
</g>
<g id="Vector">
<use xlink:href="#path7_fill" transform="translate(-434.589 -474.1)" fill="#202121"/>
</g>
<g id="Vector">
<use xlink:href="#path8_fill" transform="translate(-589.089 -456)" fill="#202121"/>
</g>
<g id="Vector">
<use xlink:href="#path9_fill" transform="translate(-595.289 -477.9)" fill="#FFCE00"/>
</g>
<g id="Vector">
<use xlink:href="#path10_fill" transform="translate(-599.789 -487)" fill="#202121"/>
</g>
</g>
</g>
<defs>
<path id="path0_fill" d="M -3.05176e-06 3.3L 5.69999 3.3L 5.69999 13.2L 9.8 13.2L 9.8 3.3L 15.5 3.3L 15.5 7.62939e-07L -3.05176e-06 7.62939e-07L -3.05176e-06 3.3Z"/>
<path id="path1_fill" d="M 4.00001 3L 10.3 3C 10.7 3 11.1 3 11.4 3.1C 11.7 3.2 11.9 3.3 12 3.5C 12.1 3.7 12.2 4 12.2 4.4L 12.2 4.8C 12.2 5.1 12.2 5.4 12.1 5.6C 12 5.8 11.8 6 11.6 6.1C 11.4 6.2 11.1 6.2 10.7 6.2L 4.00001 6.2L 4.00001 3ZM 6.10352e-06 12.9L 4.1 12.9L 4.1 9.5L 10.5 9.5C 10.9 9.5 11.2 9.6 11.5 9.7C 11.7 9.8 11.9 10 12 10.3C 12.1 10.6 12.2 10.9 12.1 11.4L 12.1 13L 16.2 13L 16.2 10.8C 16.2 10.3 16.1 9.8 16 9.5C 15.9 9.1 15.7 8.9 15.5 8.6C 15.3 8.4 15.1 8.2 14.8 8.1C 14.5 8 14.2 7.9 13.9 7.9C 14.4 7.8 14.7 7.6 15 7.5C 15.3 7.3 15.5 7.1 15.7 6.8C 15.9 6.5 16 6.2 16 5.9C 16.1 5.5 16.1 5.1 16.1 4.7L 16.1 3.9C 16.1 3.3 16 2.8 15.9 2.3C 15.8 1.8 15.6 1.4 15.3 1.1C 15 0.799998 14.6 0.499999 14.1 0.299999C 13.6 0.0999992 12.9 -7.10543e-15 12.2 -7.10543e-15L 6.10352e-06 -7.10543e-15L 6.10352e-06 12.9Z"/>
<path id="path2_fill" d="M -3.05176e-06 8.5C -3.05176e-06 9.6 0.200003 10.5 0.600003 11.2C 1 11.9 1.60001 12.5 2.40001 12.8C 3.20001 13.2 4.2 13.3 5.5 13.3L 11.3 13.3C 12.5 13.3 13.6 13.1 14.4 12.8C 15.2 12.4 15.8 11.9 16.2 11.2C 16.6 10.5 16.8 9.6 16.8 8.5L 16.8 7.62939e-07L 12.7 7.62939e-07L 12.7 7.6C 12.7 8.2 12.6 8.6 12.5 9C 12.4 9.3 12.1 9.6 11.8 9.8C 11.5 10 11 10 10.5 10L 6.5 10C 5.9 10 5.49999 9.9 5.19999 9.8C 4.89999 9.6 4.6 9.4 4.5 9C 4.4 8.7 4.3 8.2 4.3 7.6L 4.3 7.62939e-07L 0.199994 7.62939e-07L 0.199994 8.5L -3.05176e-06 8.5Z"/>
<path id="path3_fill" d="M 0.199994 8.6C 0.199994 9.4 0.299997 10 0.499997 10.6C 0.699997 11.2 0.899994 11.6 1.19999 12C 1.49999 12.4 1.90001 12.6 2.40001 12.9C 2.90001 13.1 3.4 13.3 4 13.3C 4.6 13.4 5.3 13.4 6 13.4L 12.5 13.4C 13.3 13.4 14 13.3 14.6 13.2C 15.2 13.1 15.6 12.9 16 12.6C 16.4 12.4 16.7 12.1 16.9 11.7C 17.1 11.4 17.2 11 17.3 10.6C 17.4 10.2 17.4 9.8 17.4 9.3L 17.4 8.1L 13.3 8.1C 13.3 8.5 13.3 8.8 13.2 9.1C 13.1 9.3 13 9.5 12.8 9.7C 12.6 9.8 12.4 9.9 12.1 9.9C 11.8 9.9 11.4 10 11 10L 6.69999 10C 6.19999 10 5.8 10 5.5 9.9C 5.2 9.8 5 9.6 4.8 9.4C 4.6 9.2 4.50001 8.9 4.40001 8.6C 4.30001 8.3 4.3 7.9 4.3 7.4L 4.3 6C 4.3 5.6 4.30001 5.2 4.40001 4.9C 4.50001 4.6 4.6 4.3 4.8 4.1C 5 3.9 5.2 3.7 5.6 3.6C 5.9 3.5 6.40001 3.4 6.90001 3.4L 11.3 3.4C 11.7 3.4 12 3.4 12.3 3.5C 12.6 3.6 12.8 3.7 12.9 3.9C 13 4.1 13.1 4.3 13.1 4.6L 13.1 5L 17.2 5C 17.2 4.4 17.2 3.8 17.1 3.3C 17 2.8 16.9 2.4 16.8 2C 16.6 1.6 16.4 1.3 16.1 1.1C 15.8 0.799999 15.4 0.600001 14.9 0.500001C 14.4 0.300001 13.8 0.199999 13.1 0.0999992C 12.4 -7.6741e-07 11.6 7.62939e-07 10.6 7.62939e-07L 5.8 7.62939e-07C 5.1 7.62939e-07 4.4 -7.6741e-07 3.8 0.0999992C 3.2 0.199999 2.69999 0.300001 2.19999 0.500001C 1.69999 0.700001 1.3 0.999998 0.999997 1.4C 0.699997 1.8 0.4 2.2 0.3 2.8C 0.1 3.4 -3.05176e-06 4 -3.05176e-06 4.8L -3.05176e-06 8.6L 0.199994 8.6Z"/>
<path id="path4_fill" d="M -3.05176e-06 13.2L 4.1 13.2L 4.1 8.2L 5.90001 8.2L 11.7 13.2L 17.5 13.2L 9.5 6.5L 16.6 7.62939e-07L 11.1 7.62939e-07L 6 4.9L 4.1 4.9L 4.1 7.62939e-07L -3.05176e-06 7.62939e-07L -3.05176e-06 13.2Z"/>
<path id="path5_fill" d="M 3.05176e-06 13.2L 4.09999 13.2L 4.09999 9.9L 12.2 9.9C 12.8 9.9 13.3 9.8 13.7 9.6C 14.1 9.4 14.5 9.2 14.8 8.9C 15.1 8.6 15.3 8.3 15.5 7.9C 15.7 7.5 15.8 7.2 15.9 6.8C 16 6.4 16 6 16 5.6L 16 4.5C 16 4 16 3.5 15.9 3C 15.8 2.5 15.7 2.1 15.5 1.8C 15.3 1.4 15 1.1 14.6 0.8C 14.2 0.5 13.8 0.300002 13.2 0.200002C 12.6 0.100002 12 7.62939e-07 11.2 7.62939e-07L 0.2 7.62939e-07L 0.2 13.2L 3.05176e-06 13.2ZM 4 3.3L 9.99999 3.3C 10.4 3.3 10.7 3.4 11 3.5C 11.2 3.6 11.4 3.8 11.5 4C 11.6 4.2 11.7 4.5 11.7 4.8L 11.7 5.3C 11.7 5.6 11.7 5.8 11.6 6C 11.5 6.2 11.4 6.4 11.2 6.5C 11 6.6 10.8 6.7 10.4 6.7L 4.09999 6.7L 4.09999 3.3L 4 3.3Z"/>
<path id="path6_fill" d="M 6.10352e-06 13.2L 4.50001 13.2L 5.69999 10.9L 13.9 10.9L 15.2 13.2L 19.7 13.2L 12.4 7.62939e-07L 7.10001 7.62939e-07L 6.10352e-06 13.2ZM 9.79999 3.1L 12.4 8.1L 7.19999 8.1L 9.79999 3.1Z"/>
<path id="path7_fill" d="M -1.2207e-05 13.2L 12.2 13.2C 13.2 13.2 14.1 13.1 14.8 12.9C 15.5 12.7 16.1 12.5 16.5 12.1C 16.9 11.7 17.2 11.3 17.4 10.7C 17.6 10.1 17.7 9.4 17.7 8.6L 17.7 4.6C 17.7 3.8 17.6 3.1 17.4 2.5C 17.2 1.9 16.9 1.4 16.5 1.1C 16.1 0.699999 15.5 0.5 14.8 0.3C 14.1 0.1 13.2 7.62939e-07 12.2 7.62939e-07L -1.2207e-05 7.62939e-07L -1.2207e-05 13.2ZM 3.99999 3.3L 11.2 3.3C 11.6 3.3 12 3.3 12.3 3.4C 12.6 3.5 12.9 3.6 13 3.8C 13.2 4 13.3 4.2 13.4 4.5C 13.5 4.8 13.5 5.2 13.5 5.7L 13.5 7.5C 13.5 8 13.5 8.4 13.4 8.7C 13.3 9 13.2 9.3 13 9.4C 12.8 9.6 12.6 9.7 12.3 9.8C 12 9.9 11.6 9.9 11.2 9.9L 3.99999 9.9L 3.99999 3.3Z"/>
<path id="path8_fill" fill-rule="evenodd" d="M 1.2 -7.62939e-07C 1.8 -7.62939e-07 2.4 0.5 2.4 1.2C 2.4 1.8 1.9 2.4 1.2 2.4C 0.6 2.4 3.05176e-06 1.9 3.05176e-06 1.2C 0.100003 0.5 0.6 -7.62939e-07 1.2 -7.62939e-07Z"/>
<path id="path9_fill" fill-rule="evenodd" d="M 14.9 1.52588e-06L -1.52588e-06 1.52588e-06L -1.52588e-06 20.8L 14.9 20.8L 14.9 1.52588e-06Z"/>
<path id="path10_fill" fill-rule="evenodd" d="M 20.1 4.5L 14.2 4.5L 14.2 9L 19.4 9L 19.4 29.8L 14.2 29.8L 14.2 31.8L 14.2 34.4L 14.2 38.9L 18.7 38.9L 18.7 34.4L 20.1 34.4C 22.2 34.4 23.9 32.7 23.9 30.6L 23.9 8.3C 23.9 6.2 22.2 4.5 20.1 4.5ZM 4.5 -7.62939e-07L 4.5 4.5L 9.7 4.5L 9.7 9L 4.5 9L 4.5 29.8L 9.7 29.8L 9.7 34.3L 3.8 34.3C 1.7 34.3 -1.52588e-06 32.6 -1.52588e-06 30.5L -1.52588e-06 6.8L -1.52588e-06 4.5L -1.52588e-06 -7.62939e-07L 4.5 -7.62939e-07Z"/>
</defs>
</svg>
